<mxfile host="app.diagrams.net" agent="Mozilla/5.0 (Windows NT 10.0; Win64; x64) AppleWebKit/537.36 (KHTML, like Gecko) Chrome/134.0.0.0 Safari/537.36 OPR/119.0.0.0" version="27.1.6">
  <diagram name="Page-1" id="A3_RIPWBWloOd5h1lPjY">
    <mxGraphModel dx="1372" dy="743" grid="1" gridSize="10" guides="1" tooltips="1" connect="1" arrows="1" fold="1" page="1" pageScale="1" pageWidth="827" pageHeight="1169" math="0" shadow="0">
      <root>
        <mxCell id="0" />
        <mxCell id="1" parent="0" />
        <mxCell id="A736Y8tks_oo7vE9NSSo-7" style="edgeStyle=orthogonalEdgeStyle;rounded=0;orthogonalLoop=1;jettySize=auto;html=1;exitX=0.5;exitY=1;exitDx=0;exitDy=0;entryX=0.5;entryY=0;entryDx=0;entryDy=0;" edge="1" parent="1" source="A736Y8tks_oo7vE9NSSo-1" target="A736Y8tks_oo7vE9NSSo-5">
          <mxGeometry relative="1" as="geometry" />
        </mxCell>
        <mxCell id="A736Y8tks_oo7vE9NSSo-1" value="zero-shot prompt" style="rounded=0;whiteSpace=wrap;html=1;fillColor=#d5e8d4;strokeColor=#82b366;" vertex="1" parent="1">
          <mxGeometry x="80" y="200" width="120" height="60" as="geometry" />
        </mxCell>
        <mxCell id="A736Y8tks_oo7vE9NSSo-8" style="edgeStyle=orthogonalEdgeStyle;rounded=0;orthogonalLoop=1;jettySize=auto;html=1;entryX=0.5;entryY=0;entryDx=0;entryDy=0;" edge="1" parent="1" source="A736Y8tks_oo7vE9NSSo-2" target="A736Y8tks_oo7vE9NSSo-1">
          <mxGeometry relative="1" as="geometry" />
        </mxCell>
        <mxCell id="A736Y8tks_oo7vE9NSSo-9" style="edgeStyle=orthogonalEdgeStyle;rounded=0;orthogonalLoop=1;jettySize=auto;html=1;" edge="1" parent="1" source="A736Y8tks_oo7vE9NSSo-2" target="A736Y8tks_oo7vE9NSSo-3">
          <mxGeometry relative="1" as="geometry" />
        </mxCell>
        <mxCell id="A736Y8tks_oo7vE9NSSo-10" style="edgeStyle=orthogonalEdgeStyle;rounded=0;orthogonalLoop=1;jettySize=auto;html=1;" edge="1" parent="1" source="A736Y8tks_oo7vE9NSSo-2" target="A736Y8tks_oo7vE9NSSo-4">
          <mxGeometry relative="1" as="geometry" />
        </mxCell>
        <mxCell id="A736Y8tks_oo7vE9NSSo-2" value="X" style="rounded=0;whiteSpace=wrap;html=1;fillColor=#fff2cc;strokeColor=#d6b656;" vertex="1" parent="1">
          <mxGeometry x="680" y="150" width="40" height="40" as="geometry" />
        </mxCell>
        <mxCell id="A736Y8tks_oo7vE9NSSo-13" value="" style="edgeStyle=orthogonalEdgeStyle;rounded=0;orthogonalLoop=1;jettySize=auto;html=1;" edge="1" parent="1" source="A736Y8tks_oo7vE9NSSo-3" target="A736Y8tks_oo7vE9NSSo-11">
          <mxGeometry relative="1" as="geometry" />
        </mxCell>
        <mxCell id="A736Y8tks_oo7vE9NSSo-3" value="Chain-of-Thought prompt" style="rounded=0;whiteSpace=wrap;html=1;fillColor=#d5e8d4;strokeColor=#82b366;" vertex="1" parent="1">
          <mxGeometry x="240" y="200" width="120" height="60" as="geometry" />
        </mxCell>
        <mxCell id="A736Y8tks_oo7vE9NSSo-38" value="" style="edgeStyle=orthogonalEdgeStyle;rounded=0;orthogonalLoop=1;jettySize=auto;html=1;" edge="1" parent="1" source="A736Y8tks_oo7vE9NSSo-4" target="A736Y8tks_oo7vE9NSSo-22">
          <mxGeometry relative="1" as="geometry" />
        </mxCell>
        <mxCell id="A736Y8tks_oo7vE9NSSo-39" style="edgeStyle=orthogonalEdgeStyle;rounded=0;orthogonalLoop=1;jettySize=auto;html=1;exitX=0.5;exitY=1;exitDx=0;exitDy=0;entryX=0.5;entryY=0;entryDx=0;entryDy=0;" edge="1" parent="1" source="A736Y8tks_oo7vE9NSSo-4" target="A736Y8tks_oo7vE9NSSo-18">
          <mxGeometry relative="1" as="geometry" />
        </mxCell>
        <mxCell id="A736Y8tks_oo7vE9NSSo-40" style="edgeStyle=orthogonalEdgeStyle;rounded=0;orthogonalLoop=1;jettySize=auto;html=1;exitX=0.5;exitY=1;exitDx=0;exitDy=0;entryX=0.5;entryY=0;entryDx=0;entryDy=0;" edge="1" parent="1" source="A736Y8tks_oo7vE9NSSo-4" target="A736Y8tks_oo7vE9NSSo-25">
          <mxGeometry relative="1" as="geometry" />
        </mxCell>
        <mxCell id="A736Y8tks_oo7vE9NSSo-4" value="Chain-of-Thought prompt with consistency" style="rounded=0;whiteSpace=wrap;html=1;fillColor=#d5e8d4;strokeColor=#82b366;" vertex="1" parent="1">
          <mxGeometry x="520" y="200" width="120" height="60" as="geometry" />
        </mxCell>
        <mxCell id="A736Y8tks_oo7vE9NSSo-5" value="output" style="rounded=0;whiteSpace=wrap;html=1;fillColor=#fff2cc;strokeColor=#d6b656;" vertex="1" parent="1">
          <mxGeometry x="80" y="545" width="120" height="40" as="geometry" />
        </mxCell>
        <mxCell id="A736Y8tks_oo7vE9NSSo-6" value="output" style="rounded=0;whiteSpace=wrap;html=1;fillColor=#fff2cc;strokeColor=#d6b656;" vertex="1" parent="1">
          <mxGeometry x="240" y="545" width="120" height="40" as="geometry" />
        </mxCell>
        <mxCell id="A736Y8tks_oo7vE9NSSo-15" value="..." style="edgeStyle=orthogonalEdgeStyle;rounded=0;orthogonalLoop=1;jettySize=auto;html=1;" edge="1" parent="1" source="A736Y8tks_oo7vE9NSSo-11" target="A736Y8tks_oo7vE9NSSo-12">
          <mxGeometry relative="1" as="geometry" />
        </mxCell>
        <mxCell id="A736Y8tks_oo7vE9NSSo-11" value="" style="rounded=1;whiteSpace=wrap;html=1;" vertex="1" parent="1">
          <mxGeometry x="250" y="300" width="100" height="40" as="geometry" />
        </mxCell>
        <mxCell id="A736Y8tks_oo7vE9NSSo-14" value="" style="edgeStyle=orthogonalEdgeStyle;rounded=0;orthogonalLoop=1;jettySize=auto;html=1;" edge="1" parent="1" source="A736Y8tks_oo7vE9NSSo-12" target="A736Y8tks_oo7vE9NSSo-6">
          <mxGeometry relative="1" as="geometry" />
        </mxCell>
        <mxCell id="A736Y8tks_oo7vE9NSSo-12" value="" style="rounded=1;whiteSpace=wrap;html=1;" vertex="1" parent="1">
          <mxGeometry x="250" y="460" width="100" height="40" as="geometry" />
        </mxCell>
        <mxCell id="A736Y8tks_oo7vE9NSSo-16" value="output" style="rounded=0;whiteSpace=wrap;html=1;fillColor=#fff2cc;strokeColor=#d6b656;" vertex="1" parent="1">
          <mxGeometry x="520" y="544.5" width="120" height="40" as="geometry" />
        </mxCell>
        <mxCell id="A736Y8tks_oo7vE9NSSo-29" value="" style="edgeStyle=orthogonalEdgeStyle;rounded=0;orthogonalLoop=1;jettySize=auto;html=1;" edge="1" parent="1" source="A736Y8tks_oo7vE9NSSo-18" target="A736Y8tks_oo7vE9NSSo-20">
          <mxGeometry relative="1" as="geometry" />
        </mxCell>
        <mxCell id="A736Y8tks_oo7vE9NSSo-18" value="" style="rounded=1;whiteSpace=wrap;html=1;" vertex="1" parent="1">
          <mxGeometry x="410" y="300" width="100" height="40" as="geometry" />
        </mxCell>
        <mxCell id="A736Y8tks_oo7vE9NSSo-35" value="" style="edgeStyle=orthogonalEdgeStyle;rounded=0;orthogonalLoop=1;jettySize=auto;html=1;" edge="1" parent="1" source="A736Y8tks_oo7vE9NSSo-20" target="A736Y8tks_oo7vE9NSSo-32">
          <mxGeometry relative="1" as="geometry" />
        </mxCell>
        <mxCell id="A736Y8tks_oo7vE9NSSo-36" style="edgeStyle=orthogonalEdgeStyle;rounded=0;orthogonalLoop=1;jettySize=auto;html=1;exitX=0.5;exitY=1;exitDx=0;exitDy=0;entryX=0.5;entryY=0;entryDx=0;entryDy=0;" edge="1" parent="1" source="A736Y8tks_oo7vE9NSSo-20" target="A736Y8tks_oo7vE9NSSo-33">
          <mxGeometry relative="1" as="geometry" />
        </mxCell>
        <mxCell id="A736Y8tks_oo7vE9NSSo-20" value="" style="rounded=1;whiteSpace=wrap;html=1;" vertex="1" parent="1">
          <mxGeometry x="410" y="380" width="100" height="40" as="geometry" />
        </mxCell>
        <mxCell id="A736Y8tks_oo7vE9NSSo-30" value="" style="edgeStyle=orthogonalEdgeStyle;rounded=0;orthogonalLoop=1;jettySize=auto;html=1;" edge="1" parent="1" source="A736Y8tks_oo7vE9NSSo-22" target="A736Y8tks_oo7vE9NSSo-23">
          <mxGeometry relative="1" as="geometry" />
        </mxCell>
        <mxCell id="A736Y8tks_oo7vE9NSSo-31" style="edgeStyle=orthogonalEdgeStyle;rounded=0;orthogonalLoop=1;jettySize=auto;html=1;exitX=0.5;exitY=1;exitDx=0;exitDy=0;entryX=0.5;entryY=0;entryDx=0;entryDy=0;" edge="1" parent="1" source="A736Y8tks_oo7vE9NSSo-22" target="A736Y8tks_oo7vE9NSSo-26">
          <mxGeometry relative="1" as="geometry" />
        </mxCell>
        <mxCell id="A736Y8tks_oo7vE9NSSo-22" value="" style="rounded=1;whiteSpace=wrap;html=1;" vertex="1" parent="1">
          <mxGeometry x="530" y="300" width="100" height="40" as="geometry" />
        </mxCell>
        <mxCell id="A736Y8tks_oo7vE9NSSo-23" value="" style="rounded=1;whiteSpace=wrap;html=1;fillColor=#ffe6cc;strokeColor=#d79b00;" vertex="1" parent="1">
          <mxGeometry x="530" y="380" width="100" height="40" as="geometry" />
        </mxCell>
        <mxCell id="A736Y8tks_oo7vE9NSSo-25" value="" style="rounded=1;whiteSpace=wrap;html=1;fillColor=#ffe6cc;strokeColor=#d79b00;" vertex="1" parent="1">
          <mxGeometry x="650" y="300" width="100" height="40" as="geometry" />
        </mxCell>
        <mxCell id="A736Y8tks_oo7vE9NSSo-37" value="" style="edgeStyle=orthogonalEdgeStyle;rounded=0;orthogonalLoop=1;jettySize=auto;html=1;" edge="1" parent="1" source="A736Y8tks_oo7vE9NSSo-26" target="A736Y8tks_oo7vE9NSSo-34">
          <mxGeometry relative="1" as="geometry" />
        </mxCell>
        <mxCell id="A736Y8tks_oo7vE9NSSo-26" value="" style="rounded=1;whiteSpace=wrap;html=1;" vertex="1" parent="1">
          <mxGeometry x="650" y="380" width="100" height="40" as="geometry" />
        </mxCell>
        <mxCell id="A736Y8tks_oo7vE9NSSo-32" value="" style="rounded=1;whiteSpace=wrap;html=1;fillColor=#ffe6cc;strokeColor=#d79b00;" vertex="1" parent="1">
          <mxGeometry x="410" y="460" width="100" height="40" as="geometry" />
        </mxCell>
        <mxCell id="A736Y8tks_oo7vE9NSSo-41" value="" style="edgeStyle=orthogonalEdgeStyle;rounded=0;orthogonalLoop=1;jettySize=auto;html=1;" edge="1" parent="1" source="A736Y8tks_oo7vE9NSSo-33" target="A736Y8tks_oo7vE9NSSo-16">
          <mxGeometry relative="1" as="geometry" />
        </mxCell>
        <mxCell id="A736Y8tks_oo7vE9NSSo-33" value="" style="rounded=1;whiteSpace=wrap;html=1;" vertex="1" parent="1">
          <mxGeometry x="530" y="460" width="100" height="40" as="geometry" />
        </mxCell>
        <mxCell id="A736Y8tks_oo7vE9NSSo-34" value="" style="rounded=1;whiteSpace=wrap;html=1;fillColor=#ffe6cc;strokeColor=#d79b00;" vertex="1" parent="1">
          <mxGeometry x="650" y="460" width="100" height="40" as="geometry" />
        </mxCell>
      </root>
    </mxGraphModel>
  </diagram>
</mxfile>
